# File created by Blade
# Date/Time:  Mon Sep 22 16:45:27 2014
# Frame Rate: 120.000 fps
#------------------------------------------------------
:FULLY-SPECIFIED
:DEGREES
1215
root 4.364656 36.937844 2.011463 -35.094911 1.300608 12.254370
RightUpLeg 31.928126 -2.669422 -8.737749
RightLeg 22.160483 -0.000000 -0.000000
RightFoot -25.486187 -18.751765 6.181294
RightToeBase 4.704585 -0.000000 -0.000000
LeftUpLeg -55.091104 -2.499131 -1.686237
LeftLeg 19.539121 -0.000000 -0.000000
LeftFoot 14.618411 19.068132 -32.519722
LeftToeBase 1.112626 -0.000000 -0.000000
Spine 36.453409 10.372315 -1.326308
RightShoulder 6.309176 -13.490404 -17.993530
RightArm 30.831850 15.603206 47.656614
RightForeArm 23.421108 0.000000 83.887857
RightHand 4.801624 0.000000 -32.171780
RightHandThumb1 -24.326973 -0.000000 -32.862282
LeftShoulder -31.527835 37.094638 -10.708519
LeftArm 26.629017 -7.435203 -75.258378
LeftForeArm 31.651091 -0.000000 18.924824
LeftHand -15.886096 -0.000000 -14.340807
LeftHandThumb1 -26.253704 0.000000 33.147579
Head 20.187167 -4.695070 -6.499422
1216
root 4.353223 36.938153 2.009231 -35.004797 1.298952 12.225672
RightUpLeg 31.851208 -2.679111 -8.673199
RightLeg 22.136781 -0.000000 -0.000000
RightFoot -25.454961 -18.748329 6.176593
RightToeBase 4.517921 -0.000000 -0.000000
LeftUpLeg -54.999047 -2.541096 -1.638065
LeftLeg 19.808326 -0.000000 -0.000000
LeftFoot 14.890115 18.983828 -32.986150
LeftToeBase 0.912583 -0.000000 -0.000000
Spine 36.344358 10.371531 -1.379706
RightShoulder 6.287951 -13.527709 -18.012841
RightArm 30.790847 15.512777 47.621944
RightForeArm 23.376891 -0.000000 83.949977
RightHand 4.784105 0.000000 -32.160563
RightHandThumb1 -24.326973 -0.000000 -32.862282
LeftShoulder -31.468698 37.013745 -10.716424
LeftArm 26.719237 -7.397280 -75.153499
LeftForeArm 31.756063 -0.000000 18.924645
LeftHand -15.820087 -0.000000 -14.334337
LeftHandThumb1 -26.253704 0.000000 33.147579
Head 20.236699 -4.486681 -6.428401
1217
root 4.340252 36.937402 2.007272 -34.908921 1.312418 12.182937
RightUpLeg 31.779826 -2.703016 -8.593673
RightLeg 22.096791 -0.000000 -0.000000
RightFoot -25.423523 -18.767281 6.186504
RightToeBase 4.559744 -0.000000 -0.000000
LeftUpLeg -54.921065 -2.563602 -1.630254
LeftLeg 20.092470 -0.000000 -0.000000
LeftFoot 14.994058 18.821078 -33.345985
LeftToeBase 1.180770 -0.000000 -0.000000
Spine 36.223352 10.373245 -1.449256
RightShoulder 6.251664 -13.579524 -17.994753
RightArm 30.766434 15.423931 47.552966
RightForeArm 23.360906 0.000000 83.978414
RightHand 4.721863 -0.000000 -32.136099
RightHandThumb1 -24.326973 -0.000000 -32.862282
LeftShoulder -31.429877 36.951369 -10.671920
LeftArm 26.831613 -7.332366 -75.099333
LeftForeArm 31.886977 -0.000000 18.917876
LeftHand -15.855097 -0.000000 -14.266845
LeftHandThumb1 -26.253704 0.000000 33.147579
Head 20.280732 -4.502821 -6.456578
1218
root 4.328430 36.937424 2.005395 -34.808051 1.333689 12.140404
RightUpLeg 31.704793 -2.733799 -8.526150
RightLeg 22.053888 -0.000000 -0.000000
RightFoot -25.401621 -18.771758 6.214028
RightToeBase 4.464417 -0.000000 -0.000000
LeftUpLeg -54.852160 -2.577764 -1.657482
LeftLeg 20.421006 -0.000000 -0.000000
LeftFoot 14.978944 18.747114 -33.630602
LeftToeBase 1.234853 -0.000000 -0.000000
Spine 36.095256 10.367787 -1.515808
RightShoulder 6.229106 -13.543832 -17.989221
RightArm 30.656954 15.301383 47.515651
RightForeArm 23.370223 -0.000000 84.008216
RightHand 4.797204 -0.000000 -32.251198
RightHandThumb1 -24.326973 -0.000000 -32.862282
LeftShoulder -31.392188 36.913868 -10.637300
LeftArm 26.958285 -7.299040 -75.079758
LeftForeArm 32.028743 -0.000000 18.938551
LeftHand -15.869732 -0.000000 -14.262000
LeftHandThumb1 -26.253704 0.000000 33.147579
Head 20.343018 -4.500647 -6.486700
1219
root 4.315497 36.937229 2.004501 -34.722916 1.371165 12.113152
RightUpLeg 31.653408 -2.780900 -8.488953
RightLeg 22.007751 -0.000000 -0.000000
RightFoot -25.374368 -18.787272 6.194135
RightToeBase 4.410518 -0.000000 -0.000000
LeftUpLeg -54.783652 -2.560312 -1.746714
LeftLeg 20.808113 -0.000000 -0.000000
LeftFoot 14.885392 18.579471 -33.724344
LeftToeBase 1.064506 -0.000000 -0.000000
Spine 35.986510 10.372148 -1.642514
RightShoulder 6.218751 -13.479925 -17.927180
RightArm 30.518084 15.185379 47.419857
RightForeArm 23.383289 0.000000 84.026980
RightHand 4.785657 -0.000000 -32.308951
RightHandThumb1 -24.326973 -0.000000 -32.862282
LeftShoulder -31.373193 36.863626 -10.537806
LeftArm 27.065628 -7.345221 -75.167120
LeftForeArm 32.120176 -0.000000 19.005380
LeftHand -15.983872 -0.000000 -14.230481
LeftHandThumb1 -26.253704 0.000000 33.147579
Head 20.377090 -4.769546 -6.665376
1220
root 4.305656 36.937362 2.001359 -34.615904 1.394638 12.082849
RightUpLeg 31.561731 -2.838748 -8.460489
RightLeg 21.987829 -0.000000 -0.000000
RightFoot -25.347215 -18.744071 6.215478
RightToeBase 4.488794 -0.000000 -0.000000
LeftUpLeg -54.755097 -2.530656 -1.831263
LeftLeg 21.257229 -0.000000 -0.000000
LeftFoot 14.670269 18.423546 -33.919861
LeftToeBase 0.967280 -0.000000 -0.000000
Spine 35.862207 10.357400 -1.712620
RightShoulder 6.182267 -13.495461 -17.948326
RightArm 30.504436 15.103475 47.439582
RightForeArm 23.374431 -0.000000 84.016775
RightHand 4.806274 -0.000000 -32.354483
RightHandThumb1 -24.326973 -0.000000 -32.862282
LeftShoulder -31.334074 36.844739 -10.514708
LeftArm 27.178699 -7.367296 -75.189209
LeftForeArm 32.063081 -0.000000 19.069845
LeftHand -15.993764 -0.000000 -14.183870
LeftHandThumb1 -26.253704 0.000000 33.147579
Head 20.391794 -4.627204 -6.624312
1221
root 4.293795 36.936714 1.998708 -34.528468 1.395091 12.033235
RightUpLeg 31.484437 -2.890285 -8.401791
RightLeg 21.965988 -0.000000 -0.000000
RightFoot -25.311682 -18.743395 6.183367
RightToeBase 4.350912 -0.000000 -0.000000
LeftUpLeg -54.743684 -2.465233 -1.917066
LeftLeg 21.809998 -0.000000 -0.000000
LeftFoot 14.353433 18.237340 -33.851711
LeftToeBase 0.958948 -0.000000 -0.000000
Spine 35.778038 10.322217 -1.743169
RightShoulder 6.134181 -13.507143 -17.981238
RightArm 30.539931 15.043961 47.471027
RightForeArm 23.417458 -0.000000 84.000814
RightHand 4.794476 -0.000000 -32.337648
RightHandThumb1 -24.326973 -0.000000 -32.862282
LeftShoulder -31.310052 36.797664 -10.511310
LeftArm 27.254022 -7.360458 -75.194540
LeftForeArm 31.988744 0.000000 19.191464
LeftHand -16.058255 0.000000 -14.170270
LeftHandThumb1 -26.253704 0.000000 33.147579
Head 20.354617 -4.347254 -6.514450
1222
root 4.281141 36.935051 1.996594 -34.459407 1.385588 12.012527
RightUpLeg 31.416149 -2.941462 -8.382046
RightLeg 21.960617 -0.000000 -0.000000
RightFoot -25.297640 -18.708409 6.190920
RightToeBase 4.432052 -0.000000 -0.000000
LeftUpLeg -54.738238 -2.363177 -2.035225
LeftLeg 22.441265 -0.000000 -0.000000
LeftFoot 13.977431 18.009794 -33.648308
LeftToeBase 1.000542 -0.000000 -0.000000
Spine 35.720787 10.339220 -1.817493
RightShoulder 6.111748 -13.520526 -17.973926
RightArm 30.528467 15.038457 47.465542
RightForeArm 23.499060 0.000000 83.992011
RightHand 4.806103 -0.000000 -32.302279
RightHandThumb1 -24.326973 -0.000000 -32.862282
LeftShoulder -31.272799 36.747777 -10.430574
LeftArm 27.311147 -7.398587 -75.287786
LeftForeArm 31.880768 -0.000000 19.320071
LeftHand -16.165488 -0.000000 -13.849979
LeftHandThumb1 -26.253704 0.000000 33.147579
Head 20.276883 -4.308976 -6.495174
1223
root 4.268532 36.933176 1.995481 -34.404605 1.362300 11.982721
RightUpLeg 31.361351 -2.984975 -8.348315
RightLeg 21.946646 -0.000000 -0.000000
RightFoot -25.275277 -18.683726 6.159942
RightToeBase 4.339597 -0.000000 -0.000000
LeftUpLeg -54.755075 -2.261537 -2.125916
LeftLeg 23.188495 -0.000000 -0.000000
LeftFoot 13.494306 17.828660 -33.526540
LeftToeBase 0.946339 -0.000000 -0.000000
Spine 35.687565 10.353554 -1.861525
RightShoulder 6.110415 -13.479035 -17.987315
RightArm 30.449578 15.022773 47.453795
RightForeArm 23.534649 0.000000 83.992587
RightHand 4.756772 -0.000000 -32.205461
RightHandThumb1 -24.326973 -0.000000 -32.862282
LeftShoulder -31.258435 36.708465 -10.379463
LeftArm 27.382113 -7.364527 -75.341549
LeftForeArm 31.681489 -0.000000 19.466482
LeftHand -16.134300 -0.000000 -13.784082
LeftHandThumb1 -26.253704 0.000000 33.147579
Head 20.184525 -4.282873 -6.498927
1224
root 4.256138 36.931271 1.994910 -34.377765 1.328483 11.981714
RightUpLeg 31.327786 -3.017853 -8.349170
RightLeg 21.949179 -0.000000 -0.000000
RightFoot -25.270281 -18.629731 6.170629
RightToeBase 4.403451 -0.000000 -0.000000
LeftUpLeg -54.783086 -2.124453 -2.248762
LeftLeg 24.070935 -0.000000 -0.000000
LeftFoot 12.917762 17.623589 -33.395997
LeftToeBase 0.946735 -0.000000 -0.000000
Spine 35.697794 10.417734 -1.938118
RightShoulder 6.093447 -13.435176 -17.951327
RightArm 30.384646 15.031963 47.411344
RightForeArm 23.618984 -0.000000 83.976848
RightHand 4.682186 -0.000000 -32.122768
RightHandThumb1 -24.326973 -0.000000 -32.862282
LeftShoulder -31.231280 36.659780 -10.263013
LeftArm 27.438950 -7.318678 -75.432360
LeftForeArm 31.533808 -0.000000 19.638906
LeftHand -16.145921 -0.000000 -13.681829
LeftHandThumb1 -26.253704 0.000000 33.147579
Head 20.055003 -4.516880 -6.654058
1225
root 4.244353 36.929689 1.995849 -34.360218 1.262186 11.977218
RightUpLeg 31.301797 -3.038719 -8.347552
RightLeg 21.945965 -0.000000 -0.000000
RightFoot -25.252600 -18.560560 6.159671
RightToeBase 4.386454 -0.000000 -0.000000
LeftUpLeg -54.862623 -1.973904 -2.341656
LeftLeg 25.147663 -0.000000 -0.000000
LeftFoot 12.248349 17.378976 -33.187698
LeftToeBase 0.732464 -0.000000 -0.000000
Spine 35.718542 10.472452 -1.968477
RightShoulder 6.097565 -13.439457 -17.952508
RightArm 30.362755 15.076474 47.371068
RightForeArm 23.784193 0.000000 83.965859
RightHand 4.681159 -0.000000 -32.078177
RightHandThumb1 -24.326973 -0.000000 -32.862282
LeftShoulder -31.242789 36.686102 -10.260438
LeftArm 27.588937 -7.249793 -75.459898
LeftForeArm 31.212274 -0.000000 19.755757
LeftHand -16.179590 -0.000000 -13.549654
LeftHandThumb1 -26.253704 0.000000 33.147579
Head 19.918847 -4.547760 -6.732038
1226
root 4.231546 36.927460 1.999320 -34.352156 1.147266 11.945631
RightUpLeg 31.281055 -3.043912 -8.306194
RightLeg 21.937730 -0.000000 -0.000000
RightFoot -25.225175 -18.434602 6.185698
RightToeBase 4.243555 -0.000000 -0.000000
LeftUpLeg -55.008988 -1.780209 -2.404878
LeftLeg 26.465051 -0.000000 -0.000000
LeftFoot 11.454237 17.087257 -32.900244
LeftToeBase 0.418525 -0.000000 -0.000000
Spine 35.749572 10.523341 -1.897211
RightShoulder 6.095562 -13.474476 -18.025563
RightArm 30.370985 15.117569 47.370508
RightForeArm 23.965015 -0.000000 83.962530
RightHand 4.737133 -0.000000 -31.930081
RightHandThumb1 -24.326973 -0.000000 -32.862282
LeftShoulder -31.185299 36.646678 -10.252990
LeftArm 27.632648 -7.170578 -75.448635
LeftForeArm 30.904364 -0.000000 19.885269
LeftHand -16.047692 -0.000000 -13.575610
LeftHandThumb1 -26.253704 0.000000 33.147579
Head 19.775702 -4.256396 -6.651860
